<svg id="ecTnfjzaVeu1" xmlns="http://www.w3.org/2000/svg" xmlns:xlink="http://www.w3.org/1999/xlink" viewBox="0 0 24 24" shape-rendering="geometricPrecision" text-rendering="geometricPrecision" project-id="d7bd1fef82034f41ab69ca3ab044ef28" export-id="f2b609a772f04b80b58a57b0572c3333" cached="false" style="background-color:transparent"><defs><linearGradient id="ecTnfjzaVeu3-fill" x1="0.107743" y1="0.105953" x2="0.905596" y2="0.88376" spreadMethod="pad" gradientUnits="objectBoundingBox" gradientTransform="translate(0 0)"><stop id="ecTnfjzaVeu3-fill-0" offset="0%" stop-color="#287ef0"/><stop id="ecTnfjzaVeu3-fill-1" offset="100%" stop-color="#73dff2"/></linearGradient></defs><g transform="matrix(2.463323 0 0 2.463323-17.559876-17.559876)"><rect width="46" height="46" rx="17" ry="17" transform="matrix(.211803 0 0 0.211803 7.128531 7.128531)" fill="url(#ecTnfjzaVeu3-fill)"/><g transform="matrix(.395677 0 0 0.395677 6.268002 7.427521)"><g transform="matrix(1 0 0 0.972683-.953924 5.583542)"><circle r="27.5" transform="matrix(.146014 0 0 0.146012 16.812293 6.596659)" fill="#f79b00"/><rect width="46" height="46" rx="0" ry="0" transform="matrix(.185547 0 0 0.120542 8.277131 8.161908)" fill="#e9f0f6"/><circle r="27.5" transform="matrix(.100817 0 0 0.100817 8.27713 10.934376)" fill="#e9f0f6"/><circle r="27.5" transform="matrix(.124484 0 0 0.129458 12.544712 8.161908)" fill="#e9f0f6"/><circle r="27.5" transform="matrix(.100817 0 0 0.100817 16.812293 10.934376)" fill="#e9f0f6"/></g><g transform="matrix(.592636 0.216299-.216297 0.592632 11.619074 2.126903)"><path d="M12,2v2" transform="matrix(1.244656 0 0 1.244655-2.935872-.733965)" fill="none" stroke="#000" stroke-width="2" stroke-linecap="round" stroke-linejoin="round"/><path d="M4.93,4.93L6.34,6.34" transform="matrix(1.244654 0 0 1.244654-1.378625-1.378625)" fill="none" stroke="#000" stroke-width="2" stroke-linecap="round" stroke-linejoin="round"/><path d="M20,12h2" transform="matrix(1.244656 0 0 1.244655-5.137776-2.93586)" fill="none" stroke="#000" stroke-width="2" stroke-linecap="round" stroke-linejoin="round"/><path d="M19.07,4.93L17.66,6.34" transform="matrix(1.244656 0 0 1.244655-4.493107-1.378631)" fill="none" stroke="#000" stroke-width="2" stroke-linecap="round" stroke-linejoin="round"/></g></g></g></svg>
