<svg id="egKXnVi2xMo1" xmlns="http://www.w3.org/2000/svg" xmlns:xlink="http://www.w3.org/1999/xlink" viewBox="0 0 24 24" shape-rendering="geometricPrecision" text-rendering="geometricPrecision" project-id="d7bd1fef82034f41ab69ca3ab044ef28" export-id="b565a0ad12374306b698186ec1aa2cf7" cached="false" style="background-color:transparent"><defs><linearGradient id="egKXnVi2xMo3-fill" x1="0.133786" y1="0.089058" x2="0.89778" y2="0.879199" spreadMethod="pad" gradientUnits="objectBoundingBox" gradientTransform="translate(0 0)"><stop id="egKXnVi2xMo3-fill-0" offset="0%" stop-color="#0e408a"/><stop id="egKXnVi2xMo3-fill-1" offset="100%" stop-color="#143965"/></linearGradient></defs><g transform="matrix(2.463323 0 0 2.463323-17.559874-17.559874)"><rect width="46" height="46" rx="17" ry="17" transform="matrix(.211803 0 0 0.211803 7.128531 7.128531)" fill="url(#egKXnVi2xMo3-fill)"/><g transform="matrix(.324141 0 0 0.324141 7.734815 8.265056)"><g transform="matrix(1.212556 0 0 1.212558-3.079205-2.456339)"><g transform="matrix(1 0 0 0.972683-.953924 5.583542)"><circle r="27.5" transform="matrix(.146014 0 0 0.146012 16.812293 6.596659)" fill="#f79b00"/><rect width="46" height="46" rx="0" ry="0" transform="matrix(.185547 0 0 0.120542 8.277131 8.161908)" fill="#e9f0f6"/><circle r="27.5" transform="matrix(.100817 0 0 0.100817 8.27713 10.934376)" fill="#e9f0f6"/><circle r="27.5" transform="matrix(.124484 0 0 0.129458 12.544712 8.161908)" fill="#e9f0f6"/><circle r="27.5" transform="matrix(.100817 0 0 0.100817 16.812293 10.934376)" fill="#e9f0f6"/></g><g transform="matrix(.592636 0.216299-.216297 0.592632 11.619074 2.126903)"><path d="M12,2v2" transform="matrix(1.244656 0 0 1.244655-2.964557-.812558)" fill="#e9f0f6" stroke="#ffc113" stroke-width="2" stroke-linecap="round" stroke-linejoin="round"/><path d="M4.93,4.93L6.34,6.34" transform="matrix(1.244654 0 0 1.244654-1.40731-1.457218)" fill="#e9f0f6" stroke="#ffc113" stroke-width="2" stroke-linecap="round" stroke-linejoin="round"/><path d="M20,12h2" transform="matrix(1.244656 0 0 1.244655-5.166461-3.014453)" fill="#e9f0f6" stroke="#ffc113" stroke-width="2" stroke-linecap="round" stroke-linejoin="round"/><path d="M19.07,4.93L17.66,6.34" transform="matrix(1.244656 0 0 1.244655-4.521792-1.457224)" fill="#e9f0f6" stroke="#ffc113" stroke-width="2" stroke-linecap="round" stroke-linejoin="round"/></g></g></g></g></svg>
